<?xml version="1.0" encoding="utf-8" standalone="no"?>
<svg xmlns="http://www.w3.org/2000/svg" width="560" height="275" viewBox="0 0 560 275">
  <rect width="560" height="275" fill="#ffffff"/>
    <text x="280.0" y="25" text-anchor="middle" font-family="Helvetica" font-size="15">Multiple Conditional Gates</text>

    <line x1="80" y1="60" x2="540" y2="60" stroke="#000000" stroke-width="2"/>
  <text x="70" y="65" text-anchor="end" font-family="Helvetica" font-size="13">q<tspan baseline-shift="sub" font-size="9.1">0</tspan></text>

  <line x1="80" y1="105" x2="540" y2="105" stroke="#000000" stroke-width="2"/>
  <text x="70" y="110" text-anchor="end" font-family="Helvetica" font-size="13">q<tspan baseline-shift="sub" font-size="9.1">1</tspan></text>

  <line x1="80" y1="150" x2="540" y2="150" stroke="#000000" stroke-width="2"/>
  <text x="70" y="155" text-anchor="end" font-family="Helvetica" font-size="13">q<tspan baseline-shift="sub" font-size="9.1">2</tspan></text>
  <line x1="80" y1="215" x2="540" y2="215" stroke="#778899" stroke-width="2"/>
  <line x1="80" y1="218" x2="540" y2="218" stroke="#778899" stroke-width="2"/>
  <text x="70" y="220" text-anchor="end" font-family="Helvetica" font-size="13">c/3</text>

    <rect x="105.0" y="45.0" width="30" height="30" fill="#fa4d56" stroke="#fa4d56" stroke-width="1.5"/>
  <text x="120" y="64" text-anchor="middle" font-family="Helvetica" font-size="10" fill="#000000">X</text>

  <rect x="175.0" y="45.0" width="30" height="30" fill="#a8a8a8" stroke="#a8a8a8" stroke-width="1.5"/>
  <path d="M 182.65 63 A 7.35 7.35 0 0 1 197.35 63" fill="none" stroke="#000000" stroke-width="2"/>
  <line x1="190" y1="63" x2="195.25" y2="54.75" stroke="#000000" stroke-width="2"/>
  <line x1="190" y1="75.0" x2="190" y2="216.5" stroke="#778899" stroke-width="2"/>
  <polygon points="190,224.5 184,215.5 196,215.5" fill="#778899"/>

  <rect x="245.0" y="90.0" width="30" height="30" fill="#fa4d56" stroke="#fa4d56" stroke-width="1.5"/>
  <text x="260" y="109" text-anchor="middle" font-family="Helvetica" font-size="10" fill="#000000">X</text>
  <line x1="258.5" y1="120.0" x2="258.5" y2="215" stroke="#778899" stroke-width="2"/>
  <line x1="261.5" y1="120.0" x2="261.5" y2="215" stroke="#778899" stroke-width="2"/>
  <circle cx="260" cy="215" r="5" fill="#778899" stroke="#778899" stroke-width="2"/>
  <text x="272" y="207" font-family="Helvetica" font-size="13" fill="#000000">c0</text>

  <rect x="315.0" y="135.0" width="30" height="30" fill="#33b1ff" stroke="#33b1ff" stroke-width="1.5"/>
  <text x="330" y="154" text-anchor="middle" font-family="Helvetica" font-size="10" fill="#000000">H</text>
  <line x1="328.5" y1="165.0" x2="328.5" y2="215" stroke="#778899" stroke-width="2"/>
  <line x1="331.5" y1="165.0" x2="331.5" y2="215" stroke="#778899" stroke-width="2"/>
  <circle cx="330" cy="215" r="5" fill="#778899" stroke="#778899" stroke-width="2"/>
  <text x="342" y="207" font-family="Helvetica" font-size="13" fill="#000000">c0</text>

  <rect x="385.0" y="90.0" width="30" height="30" fill="#a8a8a8" stroke="#a8a8a8" stroke-width="1.5"/>
  <path d="M 392.65 108 A 7.35 7.35 0 0 1 407.35 108" fill="none" stroke="#000000" stroke-width="2"/>
  <line x1="400" y1="108" x2="405.25" y2="99.75" stroke="#000000" stroke-width="2"/>
  <line x1="400" y1="120.0" x2="400" y2="216.5" stroke="#778899" stroke-width="2"/>
  <polygon points="400,224.5 394,215.5 406,215.5" fill="#778899"/>

  <rect x="455.0" y="135.0" width="30" height="30" fill="#a8a8a8" stroke="#a8a8a8" stroke-width="1.5"/>
  <path d="M 462.65 153 A 7.35 7.35 0 0 1 477.35 153" fill="none" stroke="#000000" stroke-width="2"/>
  <line x1="470" y1="153" x2="475.25" y2="144.75" stroke="#000000" stroke-width="2"/>
  <line x1="470" y1="165.0" x2="470" y2="216.5" stroke="#778899" stroke-width="2"/>
  <polygon points="470,224.5 464,215.5 476,215.5" fill="#778899"/>

</svg>
