<?xml version="1.0" encoding="utf-8" standalone="no"?>
<svg xmlns="http://www.w3.org/2000/svg" width="910" height="230" viewBox="0 0 910 230">
  <rect width="910" height="230" fill="#ffffff"/>
    <text x="455.0" y="25" text-anchor="middle" font-family="Helvetica" font-size="15">Grover's Algorithm</text>

    <line x1="80" y1="60" x2="890" y2="60" stroke="#000000" stroke-width="2"/>
  <text x="70" y="65" text-anchor="end" font-family="Helvetica" font-size="13">q<tspan baseline-shift="sub" font-size="9.1">0</tspan></text>

  <line x1="80" y1="105" x2="890" y2="105" stroke="#000000" stroke-width="2"/>
  <text x="70" y="110" text-anchor="end" font-family="Helvetica" font-size="13">q<tspan baseline-shift="sub" font-size="9.1">1</tspan></text>
  <line x1="80" y1="170" x2="890" y2="170" stroke="#778899" stroke-width="2"/>
  <line x1="80" y1="173" x2="890" y2="173" stroke="#778899" stroke-width="2"/>
  <text x="70" y="175" text-anchor="end" font-family="Helvetica" font-size="13">c/2</text>

    <rect x="105.0" y="45.0" width="30" height="30" fill="#33b1ff" stroke="#33b1ff" stroke-width="1.5"/>
  <text x="120" y="64" text-anchor="middle" font-family="Helvetica" font-size="10" fill="#000000">H</text>

  <rect x="105.0" y="90.0" width="30" height="30" fill="#33b1ff" stroke="#33b1ff" stroke-width="1.5"/>
  <text x="120" y="109" text-anchor="middle" font-family="Helvetica" font-size="10" fill="#000000">H</text>

  <line x1="190" y1="60" x2="190" y2="105" stroke="#a8a8a8" stroke-width="1" stroke-dasharray="3.7,1.6" opacity="0.6"/>

  <line x1="260" y1="60" x2="260" y2="105" stroke="#33b1ff" stroke-width="2"/>
  <circle cx="260" cy="60" r="4.5" fill="#002d9c" stroke="#002d9c" stroke-width="1.5"/>
  <circle cx="260" cy="105" r="4.5" fill="#002d9c" stroke="#002d9c" stroke-width="1.5"/>

  <line x1="330" y1="60" x2="330" y2="105" stroke="#a8a8a8" stroke-width="1" stroke-dasharray="3.7,1.6" opacity="0.6"/>

  <rect x="385.0" y="45.0" width="30" height="30" fill="#33b1ff" stroke="#33b1ff" stroke-width="1.5"/>
  <text x="400" y="64" text-anchor="middle" font-family="Helvetica" font-size="10" fill="#000000">H</text>

  <rect x="385.0" y="90.0" width="30" height="30" fill="#33b1ff" stroke="#33b1ff" stroke-width="1.5"/>
  <text x="400" y="109" text-anchor="middle" font-family="Helvetica" font-size="10" fill="#000000">H</text>

  <rect x="455.0" y="45.0" width="30" height="30" fill="#fa4d56" stroke="#fa4d56" stroke-width="1.5"/>
  <text x="470" y="64" text-anchor="middle" font-family="Helvetica" font-size="10" fill="#000000">X</text>

  <rect x="455.0" y="90.0" width="30" height="30" fill="#fa4d56" stroke="#fa4d56" stroke-width="1.5"/>
  <text x="470" y="109" text-anchor="middle" font-family="Helvetica" font-size="10" fill="#000000">X</text>

  <line x1="540" y1="60" x2="540" y2="105" stroke="#33b1ff" stroke-width="2"/>
  <circle cx="540" cy="60" r="4.5" fill="#002d9c" stroke="#002d9c" stroke-width="1.5"/>
  <circle cx="540" cy="105" r="4.5" fill="#002d9c" stroke="#002d9c" stroke-width="1.5"/>

  <rect x="595.0" y="45.0" width="30" height="30" fill="#fa4d56" stroke="#fa4d56" stroke-width="1.5"/>
  <text x="610" y="64" text-anchor="middle" font-family="Helvetica" font-size="10" fill="#000000">X</text>

  <rect x="595.0" y="90.0" width="30" height="30" fill="#fa4d56" stroke="#fa4d56" stroke-width="1.5"/>
  <text x="610" y="109" text-anchor="middle" font-family="Helvetica" font-size="10" fill="#000000">X</text>

  <rect x="665.0" y="45.0" width="30" height="30" fill="#33b1ff" stroke="#33b1ff" stroke-width="1.5"/>
  <text x="680" y="64" text-anchor="middle" font-family="Helvetica" font-size="10" fill="#000000">H</text>

  <rect x="665.0" y="90.0" width="30" height="30" fill="#33b1ff" stroke="#33b1ff" stroke-width="1.5"/>
  <text x="680" y="109" text-anchor="middle" font-family="Helvetica" font-size="10" fill="#000000">H</text>

  <rect x="735.0" y="45.0" width="30" height="30" fill="#a8a8a8" stroke="#a8a8a8" stroke-width="1.5"/>
  <path d="M 742.65 63 A 7.35 7.35 0 0 1 757.35 63" fill="none" stroke="#000000" stroke-width="2"/>
  <line x1="750" y1="63" x2="755.25" y2="54.75" stroke="#000000" stroke-width="2"/>
  <line x1="750" y1="75.0" x2="750" y2="171.5" stroke="#778899" stroke-width="2"/>
  <polygon points="750,179.5 744,170.5 756,170.5" fill="#778899"/>

  <rect x="805.0" y="90.0" width="30" height="30" fill="#a8a8a8" stroke="#a8a8a8" stroke-width="1.5"/>
  <path d="M 812.65 108 A 7.35 7.35 0 0 1 827.35 108" fill="none" stroke="#000000" stroke-width="2"/>
  <line x1="820" y1="108" x2="825.25" y2="99.75" stroke="#000000" stroke-width="2"/>
  <line x1="820" y1="120.0" x2="820" y2="171.5" stroke="#778899" stroke-width="2"/>
  <polygon points="820,179.5 814,170.5 826,170.5" fill="#778899"/>

</svg>
