<?xml version="1.0" encoding="utf-8" standalone="no"?>
<svg xmlns="http://www.w3.org/2000/svg" width="1050" height="275" viewBox="0 0 1050 275">
  <rect width="1050" height="275" fill="#ffffff"/>
    <text x="525.0" y="25" text-anchor="middle" font-family="Helvetica" font-size="15">Quantum Teleportation Protocol</text>

    <line x1="80" y1="60" x2="1030" y2="60" stroke="#000000" stroke-width="2"/>
  <text x="70" y="65" text-anchor="end" font-family="Helvetica" font-size="13">q<tspan baseline-shift="sub" font-size="9.1">0</tspan></text>

  <line x1="80" y1="105" x2="1030" y2="105" stroke="#000000" stroke-width="2"/>
  <text x="70" y="110" text-anchor="end" font-family="Helvetica" font-size="13">q<tspan baseline-shift="sub" font-size="9.1">1</tspan></text>

  <line x1="80" y1="150" x2="1030" y2="150" stroke="#000000" stroke-width="2"/>
  <text x="70" y="155" text-anchor="end" font-family="Helvetica" font-size="13">q<tspan baseline-shift="sub" font-size="9.1">2</tspan></text>
  <line x1="80" y1="215" x2="1030" y2="215" stroke="#778899" stroke-width="2"/>
  <line x1="80" y1="218" x2="1030" y2="218" stroke="#778899" stroke-width="2"/>
  <text x="70" y="220" text-anchor="end" font-family="Helvetica" font-size="13">c/3</text>

    <rect x="105.0" y="45.0" width="30" height="30" fill="#33b1ff" stroke="#33b1ff" stroke-width="1.5"/>
  <text x="120" y="64" text-anchor="middle" font-family="Helvetica" font-size="10" fill="#000000">H</text>

  <rect x="175.0" y="45.0" width="30" height="30" fill="#33b1ff" stroke="#33b1ff" stroke-width="1.5"/>
  <text x="190" y="64" text-anchor="middle" font-family="Helvetica" font-size="10" fill="#000000">T</text>

  <line x1="260" y1="60" x2="260" y2="150" stroke="#a8a8a8" stroke-width="1" stroke-dasharray="3.7,1.6" opacity="0.6"/>

  <rect x="315.0" y="90.0" width="30" height="30" fill="#33b1ff" stroke="#33b1ff" stroke-width="1.5"/>
  <text x="330" y="109" text-anchor="middle" font-family="Helvetica" font-size="10" fill="#000000">H</text>

  <line x1="400" y1="105" x2="400" y2="150" stroke="#33b1ff" stroke-width="2"/>
  <circle cx="400" cy="105" r="4.5" fill="#002d9c" stroke="#002d9c" stroke-width="1.5"/>
  <circle cx="400" cy="150" r="10.5" fill="none" stroke="#000000" stroke-width="2"/>
  <line x1="389.5" y1="150" x2="410.5" y2="150" stroke="#000000" stroke-width="2"/>
  <line x1="400" y1="139.5" x2="400" y2="160.5" stroke="#000000" stroke-width="2"/>

  <line x1="470" y1="60" x2="470" y2="105" stroke="#33b1ff" stroke-width="2"/>
  <circle cx="470" cy="60" r="4.5" fill="#002d9c" stroke="#002d9c" stroke-width="1.5"/>
  <circle cx="470" cy="105" r="10.5" fill="none" stroke="#000000" stroke-width="2"/>
  <line x1="459.5" y1="105" x2="480.5" y2="105" stroke="#000000" stroke-width="2"/>
  <line x1="470" y1="94.5" x2="470" y2="115.5" stroke="#000000" stroke-width="2"/>

  <rect x="525.0" y="90.0" width="30" height="30" fill="#33b1ff" stroke="#33b1ff" stroke-width="1.5"/>
  <text x="540" y="109" text-anchor="middle" font-family="Helvetica" font-size="10" fill="#000000">H</text>

  <line x1="610" y1="60" x2="610" y2="150" stroke="#a8a8a8" stroke-width="1" stroke-dasharray="3.7,1.6" opacity="0.6"/>

  <rect x="665.0" y="45.0" width="30" height="30" fill="#a8a8a8" stroke="#a8a8a8" stroke-width="1.5"/>
  <path d="M 672.65 63 A 7.35 7.35 0 0 1 687.35 63" fill="none" stroke="#000000" stroke-width="2"/>
  <line x1="680" y1="63" x2="685.25" y2="54.75" stroke="#000000" stroke-width="2"/>
  <line x1="680" y1="75.0" x2="680" y2="216.5" stroke="#778899" stroke-width="2"/>
  <polygon points="680,224.5 674,215.5 686,215.5" fill="#778899"/>

  <rect x="735.0" y="90.0" width="30" height="30" fill="#a8a8a8" stroke="#a8a8a8" stroke-width="1.5"/>
  <path d="M 742.65 108 A 7.35 7.35 0 0 1 757.35 108" fill="none" stroke="#000000" stroke-width="2"/>
  <line x1="750" y1="108" x2="755.25" y2="99.75" stroke="#000000" stroke-width="2"/>
  <line x1="750" y1="120.0" x2="750" y2="216.5" stroke="#778899" stroke-width="2"/>
  <polygon points="750,224.5 744,215.5 756,215.5" fill="#778899"/>

  <line x1="820" y1="105" x2="820" y2="150" stroke="#33b1ff" stroke-width="2"/>
  <circle cx="820" cy="105" r="4.5" fill="#002d9c" stroke="#002d9c" stroke-width="1.5"/>
  <circle cx="820" cy="150" r="10.5" fill="none" stroke="#000000" stroke-width="2"/>
  <line x1="809.5" y1="150" x2="830.5" y2="150" stroke="#000000" stroke-width="2"/>
  <line x1="820" y1="139.5" x2="820" y2="160.5" stroke="#000000" stroke-width="2"/>

  <line x1="890" y1="60" x2="890" y2="150" stroke="#33b1ff" stroke-width="2"/>
  <circle cx="890" cy="60" r="4.5" fill="#002d9c" stroke="#002d9c" stroke-width="1.5"/>
  <circle cx="890" cy="150" r="4.5" fill="#002d9c" stroke="#002d9c" stroke-width="1.5"/>

  <rect x="945.0" y="135.0" width="30" height="30" fill="#a8a8a8" stroke="#a8a8a8" stroke-width="1.5"/>
  <path d="M 952.65 153 A 7.35 7.35 0 0 1 967.35 153" fill="none" stroke="#000000" stroke-width="2"/>
  <line x1="960" y1="153" x2="965.25" y2="144.75" stroke="#000000" stroke-width="2"/>
  <line x1="960" y1="165.0" x2="960" y2="216.5" stroke="#778899" stroke-width="2"/>
  <polygon points="960,224.5 954,215.5 966,215.5" fill="#778899"/>

</svg>
